<svg width="150" height="32" viewBox="0 0 150 32" fill="none" xmlns="http://www.w3.org/2000/svg">
<path d="M38.1235 26.9787C36.6779 26.9787 35.5086 26.652 34.6157 25.9987C33.7299 25.3382 33.1913 24.4079 33 23.2077L35.9551 22.7603C36.0755 23.3 36.3413 23.7226 36.7523 24.028C37.1704 24.3333 37.6983 24.486 38.3361 24.486C38.8605 24.486 39.2644 24.3866 39.5479 24.1878C39.8314 23.9818 39.9731 23.6977 39.9731 23.3356C39.9731 23.1083 39.9164 22.9272 39.803 22.7923C39.6896 22.6502 39.4345 22.5118 39.0377 22.3768C38.6479 22.2419 38.0385 22.0644 37.2094 21.8442C36.2739 21.6028 35.5263 21.3329 34.9665 21.0346C34.4067 20.7364 34.0027 20.3813 33.7547 19.9694C33.5067 19.5504 33.3827 19.0462 33.3827 18.4567C33.3827 17.7182 33.5705 17.079 33.946 16.5393C34.3216 15.9925 34.8496 15.5735 35.5299 15.2823C36.2173 14.984 37.0251 14.8349 37.9534 14.8349C38.8534 14.8349 39.6507 14.9734 40.3451 15.2503C41.0396 15.5273 41.5994 15.9214 42.0246 16.4328C42.4569 16.9441 42.7226 17.5477 42.8219 18.2437L39.8668 18.7763C39.8172 18.3502 39.6329 18.0129 39.314 17.7643C38.9952 17.5158 38.5629 17.3702 38.0172 17.3276C37.4857 17.2921 37.057 17.3631 36.731 17.5406C36.4121 17.7182 36.2527 17.9738 36.2527 18.3076C36.2527 18.5064 36.32 18.6733 36.4547 18.8083C36.5964 18.9432 36.8834 19.0817 37.3157 19.2237C37.755 19.3657 38.4212 19.5504 39.314 19.7776C40.1857 20.0049 40.8837 20.2712 41.4081 20.5766C41.9396 20.8748 42.3258 21.237 42.5667 21.6631C42.8077 22.0821 42.9281 22.5899 42.9281 23.1864C42.9281 24.3653 42.503 25.2921 41.6526 25.9667C40.8022 26.6414 39.6259 26.9787 38.1235 26.9787Z" fill="#FAFAFA"/>
<path d="M50.4301 26.9787C49.275 26.9787 48.2616 26.7195 47.39 26.2011C46.5183 25.6826 45.838 24.9689 45.3491 24.0599C44.8672 23.1438 44.6262 22.0928 44.6262 20.9068C44.6262 19.7066 44.8743 18.652 45.3703 17.743C45.8664 16.8269 46.5502 16.1132 47.4219 15.6019C48.2935 15.0905 49.2962 14.8349 50.4301 14.8349C51.5852 14.8349 52.5985 15.0941 53.4702 15.6125C54.3489 16.1309 55.0327 16.8482 55.5217 17.7643C56.0107 18.6733 56.2551 19.7208 56.2551 20.9068C56.2551 22.0999 56.0071 23.1545 55.5111 24.0706C55.0221 24.9796 54.3383 25.6933 53.4595 26.2117C52.5879 26.723 51.5781 26.9787 50.4301 26.9787ZM50.4301 24.273C51.3584 24.273 52.0493 23.9605 52.5029 23.3356C52.9635 22.7035 53.1938 21.8939 53.1938 20.9068C53.1938 19.8842 52.9599 19.0675 52.4922 18.4567C52.0316 17.846 51.3442 17.5406 50.4301 17.5406C49.7994 17.5406 49.2821 17.6826 48.8781 17.9667C48.4742 18.2508 48.173 18.6449 47.9746 19.1491C47.7833 19.6534 47.6876 20.2392 47.6876 20.9068C47.6876 21.9365 47.9179 22.7568 48.3785 23.3675C48.8462 23.9712 49.5301 24.273 50.4301 24.273Z" fill="#FAFAFA"/>
<path d="M58.8053 26.6591V11H61.6966V26.6591H58.8053Z" fill="#FAFAFA"/>
<path d="M68.0722 26.9787C67.2502 26.9787 66.5522 26.8225 65.9782 26.51C65.4113 26.1904 64.979 25.7679 64.6813 25.2423C64.3908 24.7097 64.2455 24.1238 64.2455 23.4847C64.2455 22.9521 64.327 22.4656 64.49 22.0253C64.653 21.585 64.9152 21.198 65.2766 20.8642C65.6451 20.5233 66.1376 20.2392 66.7541 20.012C67.1793 19.8557 67.686 19.7173 68.2742 19.5965C68.8624 19.4758 69.5285 19.3622 70.2726 19.2557C71.0166 19.142 71.8351 19.0178 72.728 18.8828L71.6863 19.4581C71.6863 18.7763 71.5233 18.2756 71.1974 17.9561C70.8714 17.6365 70.3257 17.4767 69.5604 17.4767C69.1352 17.4767 68.6923 17.5797 68.2317 17.7856C67.771 17.9916 67.4486 18.3573 67.2644 18.8828L64.6495 18.0519C64.94 17.1003 65.4857 16.3262 66.2864 15.7297C67.0872 15.1332 68.1785 14.8349 69.5604 14.8349C70.5737 14.8349 71.4737 14.9911 72.2603 15.3036C73.0469 15.6161 73.6422 16.1558 74.0461 16.9228C74.2729 17.3489 74.4075 17.775 74.45 18.2011C74.4926 18.6272 74.5138 19.103 74.5138 19.6285V26.6591H71.984V24.2943L72.3454 24.7843C71.7855 25.5584 71.1796 26.1194 70.5277 26.4674C69.8828 26.8083 69.0643 26.9787 68.0722 26.9787ZM68.6887 24.6991C69.2202 24.6991 69.6667 24.6067 70.0281 24.4221C70.3966 24.2304 70.6871 24.0138 70.8997 23.7723C71.1194 23.5308 71.2682 23.3285 71.3462 23.1651C71.495 22.8526 71.58 22.4905 71.6013 22.0786C71.6296 21.6596 71.6438 21.3116 71.6438 21.0346L72.4942 21.2477C71.6367 21.3897 70.9422 21.5104 70.4108 21.6099C69.8793 21.7022 69.4505 21.7874 69.1246 21.8655C68.7986 21.9436 68.5116 22.0289 68.2636 22.1212C67.9801 22.2348 67.7498 22.3591 67.5726 22.494C67.4025 22.6218 67.275 22.7639 67.19 22.9201C67.112 23.0763 67.073 23.2503 67.073 23.4421C67.073 23.7048 67.1368 23.9321 67.2644 24.1238C67.399 24.3085 67.5868 24.4505 67.8277 24.5499C68.0687 24.6494 68.3557 24.6991 68.6887 24.6991Z" fill="#FAFAFA"/>
<path d="M77.4903 13.5566V11H80.3816V13.5566H77.4903ZM77.4903 26.6591V15.1545H80.3816V26.6591H77.4903Z" fill="#FAFAFA"/>
<path d="M88.2242 26.9787C87.1683 26.9787 86.2435 26.7124 85.4498 26.1798C84.6561 25.6471 84.036 24.9228 83.5896 24.0067C83.1502 23.0905 82.9306 22.0573 82.9306 20.9068C82.9306 19.735 83.1538 18.6946 83.6002 17.7856C84.0538 16.8695 84.688 16.1487 85.5029 15.6232C86.3179 15.0976 87.2746 14.8349 88.373 14.8349C89.4643 14.8349 90.382 15.1012 91.1261 15.6338C91.8701 16.1664 92.4335 16.8908 92.8162 17.8069C93.1989 18.723 93.3902 19.7563 93.3902 20.9068C93.3902 22.0573 93.1953 23.0905 92.8056 24.0067C92.4229 24.9228 91.8489 25.6471 91.0835 26.1798C90.3182 26.7124 89.3651 26.9787 88.2242 26.9787ZM88.6919 24.4008C89.3367 24.4008 89.8505 24.2552 90.2332 23.964C90.6229 23.6729 90.9028 23.2645 91.0729 22.739C91.243 22.2135 91.328 21.6028 91.328 20.9068C91.328 20.2108 91.243 19.6001 91.0729 19.0746C90.9028 18.549 90.63 18.1407 90.2544 17.8495C89.8859 17.5584 89.4005 17.4128 88.7982 17.4128C88.1533 17.4128 87.6218 17.5726 87.2037 17.8921C86.7927 18.2046 86.488 18.6272 86.2895 19.1598C86.0911 19.6853 85.9919 20.2676 85.9919 20.9068C85.9919 21.553 86.0876 22.1425 86.2789 22.6751C86.4703 23.2006 86.7643 23.6196 87.1612 23.9321C87.558 24.2446 88.0683 24.4008 88.6919 24.4008ZM91.328 26.6591V18.7763H90.9666V11.3196H93.8792V26.6591H91.328Z" fill="#FAFAFA"/>
<path d="M97.3232 26.6591V23.7617H100.214V26.6591H97.3232Z" fill="#FAFAFA"/>
<path d="M104.622 26.6591V15.1971C104.622 14.9059 104.629 14.5757 104.643 14.2064C104.657 13.8371 104.714 13.4643 104.813 13.0879C104.919 12.7115 105.111 12.3706 105.387 12.0652C105.741 11.6676 106.124 11.3977 106.535 11.2557C106.953 11.1065 107.357 11.0284 107.747 11.0213C108.137 11.0071 108.47 11 108.746 11H110.171V13.3435H108.852C108.399 13.3435 108.062 13.4607 107.843 13.6951C107.623 13.9223 107.513 14.1957 107.513 14.5153V26.6591H104.622ZM102.815 17.3915V15.1545H110.171V17.3915H102.815Z" fill="#FAFAFA"/>
<path d="M116.139 27C115.239 27 114.505 26.8473 113.939 26.5419C113.372 26.2366 112.929 25.8495 112.61 25.3808C112.298 24.9121 112.075 24.4257 111.94 23.9214C111.806 23.4101 111.724 22.945 111.696 22.526C111.667 22.107 111.653 21.8016 111.653 21.6099V15.1545H114.587V20.5872C114.587 20.85 114.601 21.1873 114.63 21.5992C114.658 22.004 114.746 22.4123 114.895 22.8242C115.044 23.2361 115.285 23.5806 115.618 23.8575C115.958 24.1345 116.437 24.273 117.053 24.273C117.301 24.273 117.567 24.2339 117.85 24.1558C118.134 24.0777 118.4 23.9285 118.648 23.7084C118.896 23.4811 119.098 23.1509 119.253 22.7177C119.416 22.2774 119.498 21.7022 119.498 20.992L121.156 21.7803C121.156 22.6893 120.972 23.5415 120.603 24.3369C120.235 25.1323 119.679 25.775 118.935 26.265C118.198 26.755 117.266 27 116.139 27ZM119.859 26.6591V22.8455H119.498V15.1545H122.41V26.6591H119.859Z" fill="#FAFAFA"/>
<path d="M133.205 26.6591V21.2264C133.205 20.9636 133.191 20.6298 133.162 20.225C133.134 19.8131 133.045 19.4012 132.896 18.9893C132.748 18.5775 132.503 18.233 132.163 17.9561C131.83 17.6791 131.355 17.5406 130.739 17.5406C130.491 17.5406 130.225 17.5797 129.941 17.6578C129.658 17.7359 129.392 17.8886 129.144 18.1158C128.896 18.336 128.691 18.6627 128.528 19.0959C128.372 19.5291 128.294 20.1043 128.294 20.8216L126.636 20.0333C126.636 19.1243 126.82 18.2721 127.188 17.4767C127.557 16.6813 128.11 16.0386 128.847 15.5486C129.591 15.0586 130.526 14.8136 131.653 14.8136C132.553 14.8136 133.286 14.9663 133.853 15.2716C134.42 15.577 134.859 15.964 135.171 16.4328C135.49 16.9015 135.717 17.3915 135.852 17.9028C135.986 18.407 136.068 18.8686 136.096 19.2876C136.124 19.7066 136.139 20.012 136.139 20.2037V26.6591H133.205ZM125.36 26.6591V15.1545H127.932V18.968H128.294V26.6591H125.36Z" fill="#FAFAFA"/>
<path d="M143.345 26.9787C142.289 26.9787 141.364 26.7124 140.571 26.1798C139.777 25.6471 139.157 24.9228 138.71 24.0067C138.271 23.0905 138.051 22.0573 138.051 20.9068C138.051 19.735 138.275 18.6946 138.721 17.7856C139.175 16.8695 139.809 16.1487 140.624 15.6232C141.439 15.0976 142.395 14.8349 143.494 14.8349C144.585 14.8349 145.503 15.1012 146.247 15.6338C146.991 16.1664 147.554 16.8908 147.937 17.8069C148.32 18.723 148.511 19.7563 148.511 20.9068C148.511 22.0573 148.316 23.0905 147.926 24.0067C147.544 24.9228 146.97 25.6471 146.204 26.1798C145.439 26.7124 144.486 26.9787 143.345 26.9787ZM143.813 24.4008C144.458 24.4008 144.971 24.2552 145.354 23.964C145.744 23.6729 146.024 23.2645 146.194 22.739C146.364 22.2135 146.449 21.6028 146.449 20.9068C146.449 20.2108 146.364 19.6001 146.194 19.0746C146.024 18.549 145.751 18.1407 145.375 17.8495C145.007 17.5584 144.521 17.4128 143.919 17.4128C143.274 17.4128 142.743 17.5726 142.325 17.8921C141.914 18.2046 141.609 18.6272 141.41 19.1598C141.212 19.6853 141.113 20.2676 141.113 20.9068C141.113 21.553 141.208 22.1425 141.4 22.6751C141.591 23.2006 141.885 23.6196 142.282 23.9321C142.679 24.2446 143.189 24.4008 143.813 24.4008ZM146.449 26.6591V18.7763H146.087V11.3196H149V26.6591H146.449Z" fill="#FAFAFA"/>
<rect x="4" y="8" width="24" height="24" rx="5" fill="#FAFAFA"/>
<path d="M23.1258 23.892L20.7486 26.3756C20.6966 26.4298 20.6342 26.4728 20.565 26.502C20.4953 26.5314 20.4205 26.5465 20.3448 26.5465H9.07592C9.02232 26.5465 8.96982 26.5313 8.9246 26.5025C8.87989 26.4741 8.84451 26.4331 8.82284 26.3848C8.80145 26.3369 8.79489 26.2837 8.804 26.2321C8.81324 26.1802 8.83767 26.1322 8.8742 26.0942L11.2531 23.6106C11.305 23.5566 11.3673 23.5137 11.4363 23.4845C11.5057 23.4551 11.5803 23.4398 11.6557 23.4397H22.924C22.9776 23.4397 23.0301 23.455 23.0754 23.4838C23.12 23.5122 23.1554 23.5531 23.1772 23.6014C23.1986 23.6493 23.2051 23.7025 23.196 23.7542C23.1867 23.8061 23.1623 23.854 23.1258 23.892ZM20.7486 18.8907C20.6966 18.8366 20.6342 18.7936 20.565 18.7644C20.4953 18.7349 20.4205 18.7198 20.3448 18.7198H9.07592C9.02231 18.7198 8.96981 18.7351 8.9246 18.7639C8.8799 18.7923 8.84452 18.8332 8.82284 18.8815C8.80144 18.9294 8.79488 18.9826 8.804 19.0343C8.81325 19.0862 8.83768 19.1341 8.8742 19.1721L11.2531 21.6558C11.305 21.7098 11.3673 21.7527 11.4363 21.7819C11.5055 21.8113 11.5803 21.8265 11.6557 21.8266H22.924C22.9776 21.8267 23.0301 21.8114 23.0754 21.7826C23.12 21.7541 23.1554 21.7132 23.1772 21.6649C23.1985 21.617 23.2051 21.5638 23.196 21.5122C23.1867 21.4603 23.1623 21.4124 23.1258 21.3744L20.7486 18.8907ZM9.07598 17.1067H20.3449C20.4205 17.1068 20.4954 17.0917 20.5651 17.0622C20.6342 17.033 20.6967 16.99 20.7487 16.9359L23.1259 14.4522C23.1624 14.4142 23.1868 14.3663 23.1961 14.3144C23.2052 14.2627 23.1986 14.2095 23.1772 14.1616C23.1555 14.1134 23.1201 14.0725 23.0754 14.044C23.0302 14.0152 22.9777 14 22.924 14H11.6557C11.5803 14.0001 11.5057 14.0153 11.4363 14.0447C11.3673 14.0739 11.305 14.1168 11.2531 14.1708L8.87474 16.6545C8.83826 16.6924 8.81385 16.7403 8.8046 16.7922C8.79546 16.8438 8.80198 16.8969 8.82332 16.9448C8.84494 16.9931 8.88024 17.034 8.92484 17.0624C8.96995 17.0913 9.02243 17.1066 9.07598 17.1067Z" fill="#0A0A0A"/>
<path d="M16 5V1" stroke="#FAFAFA" stroke-width="2" stroke-linecap="round"/>
<path d="M28 6.82843L30.8284 4" stroke="#FAFAFA" stroke-width="2" stroke-linecap="round"/>
<path d="M3.82843 6.82843L0.999999 4" stroke="#FAFAFA" stroke-width="2" stroke-linecap="round"/>
</svg>
