<svg width="32" height="32" viewBox="0 0 32 32" fill="none" xmlns="http://www.w3.org/2000/svg">
<rect x="4" y="8" width="24" height="24" rx="5" fill="#FAFAFA"/>
<path d="M23.1258 23.892L20.7486 26.3756C20.6966 26.4298 20.6342 26.4728 20.565 26.502C20.4953 26.5314 20.4205 26.5465 20.3448 26.5465H9.07592C9.02232 26.5465 8.96982 26.5313 8.9246 26.5025C8.8799 26.4741 8.84451 26.4331 8.82284 26.3848C8.80145 26.3369 8.79489 26.2837 8.804 26.2321C8.81324 26.1802 8.83767 26.1322 8.8742 26.0942L11.2531 23.6106C11.305 23.5566 11.3673 23.5137 11.4363 23.4845C11.5057 23.4551 11.5803 23.4398 11.6557 23.4397H22.924C22.9776 23.4397 23.0301 23.455 23.0754 23.4838C23.12 23.5122 23.1554 23.5531 23.1772 23.6014C23.1986 23.6493 23.2051 23.7025 23.196 23.7542C23.1867 23.8061 23.1623 23.854 23.1258 23.892ZM20.7486 18.8907C20.6966 18.8366 20.6342 18.7936 20.565 18.7644C20.4953 18.7349 20.4205 18.7198 20.3448 18.7198H9.07592C9.02232 18.7198 8.96981 18.7351 8.9246 18.7639C8.8799 18.7923 8.84452 18.8332 8.82284 18.8815C8.80144 18.9294 8.79488 18.9826 8.804 19.0343C8.81326 19.0862 8.83769 19.1341 8.8742 19.1721L11.2531 21.6558C11.305 21.7098 11.3673 21.7527 11.4363 21.7819C11.5055 21.8113 11.5803 21.8265 11.6557 21.8266H22.924C22.9776 21.8267 23.0301 21.8114 23.0754 21.7826C23.12 21.7541 23.1554 21.7132 23.1772 21.6649C23.1985 21.617 23.2051 21.5638 23.196 21.5122C23.1867 21.4603 23.1623 21.4124 23.1258 21.3744L20.7486 18.8907ZM9.07598 17.1067H20.3449C20.4205 17.1068 20.4954 17.0917 20.5651 17.0622C20.6342 17.033 20.6967 16.99 20.7487 16.9359L23.1259 14.4522C23.1624 14.4142 23.1868 14.3663 23.1961 14.3144C23.2052 14.2627 23.1986 14.2095 23.1772 14.1616C23.1555 14.1134 23.1201 14.0725 23.0754 14.044C23.0302 14.0152 22.9777 14 22.924 14H11.6557C11.5803 14.0001 11.5057 14.0153 11.4363 14.0447C11.3673 14.0739 11.305 14.1168 11.2531 14.1708L8.87474 16.6545C8.83826 16.6924 8.81386 16.7403 8.8046 16.7922C8.79546 16.8438 8.80198 16.8969 8.82332 16.9448C8.84495 16.9931 8.88024 17.034 8.92484 17.0624C8.96996 17.0913 9.02243 17.1066 9.07598 17.1067Z" fill="#0A0A0A"/>
<path d="M16 5V1" stroke="#FAFAFA" stroke-width="2" stroke-linecap="round"/>
<path d="M28 6.82843L30.8284 4" stroke="#FAFAFA" stroke-width="2" stroke-linecap="round"/>
<path d="M3.82843 6.82843L1 4" stroke="#FAFAFA" stroke-width="2" stroke-linecap="round"/>
</svg>
